<?xml version="1.0" encoding="UTF-8" standalone="no"?>
<!-- Created with Inkscape (http://www.inkscape.org/) -->

<svg
   width="48"
   height="48"
   viewBox="0 0 12.7 12.7"
   version="1.1"
   id="svg1"
   xml:space="preserve"
   inkscape:version="1.4.2 (ebf0e940d0, 2025-05-08)"
   sodipodi:docname="favicon.svg"
   xmlns:inkscape="http://www.inkscape.org/namespaces/inkscape"
   xmlns:sodipodi="http://sodipodi.sourceforge.net/DTD/sodipodi-0.dtd"
   xmlns="http://www.w3.org/2000/svg"
   xmlns:svg="http://www.w3.org/2000/svg"><sodipodi:namedview
     id="namedview1"
     pagecolor="#ffffff"
     bordercolor="#000000"
     borderopacity="0.25"
     inkscape:showpageshadow="2"
     inkscape:pageopacity="0.0"
     inkscape:pagecheckerboard="0"
     inkscape:deskcolor="#d1d1d1"
     inkscape:document-units="mm"
     inkscape:zoom="9.7780022"
     inkscape:cx="19.277967"
     inkscape:cy="23.624458"
     inkscape:window-width="1536"
     inkscape:window-height="932"
     inkscape:window-x="0"
     inkscape:window-y="0"
     inkscape:window-maximized="1"
     inkscape:current-layer="layer1" /><defs
     id="defs1" /><g
     inkscape:label="图层 1"
     inkscape:groupmode="layer"
     id="layer1"><path
       d="m 4.2726563,1.7758587 c 0.0807,0.827167 -0.534194,1.496563 -1.078759,2.037662 -0.247359,0.237331 -0.04101,0.03916 -0.170312,0.157163 -0.02704,-0.126736 -0.079,-0.457994 -0.07414,-0.558271 0.0345,-0.712761 0.613781,-1.742943 1.121331,-2.122911 0.08176,0.152585 0.14896,0.164862 0.201877,0.486357 z m 0.172244,4.270904 c -0.325967,-0.239712 -0.754063,-0.302683 -1.146599,-0.234156 -0.05061,-0.332052 -0.101256,-0.664104 -0.15187,-0.995892 0.621929,-0.616214 1.298204,-1.331436 1.333658,-2.259383 0.01561,-0.59055 -0.07303,-1.235974 -0.44397,-1.71545201 -0.449898,0.03393 -0.76716,0.57044201 -1.00592,0.90394901 -0.393938,0.70657 -0.301995,1.565513 -0.150812,2.327407 -0.214154,0.251883 -0.51054,0.461169 -0.721625,0.723371 -0.623385,0.610658 -1.16641596,1.436687 -1.05955,2.3489707 0.0485,0.882121 0.685112,1.702329 1.553157,1.912144 0.329591,0.08334 0.678365,0.09155 1.011793,0.02619 0.05818,0.595312 0.271621,1.2247556 0.02447,1.8026066 -0.185394,0.422804 -0.737526,0.794808 -1.146307,0.579966 -0.158592,-0.08361 -0.03008,-0.01349 -0.126471,-0.06668 0.283051,-0.068 0.529061,-0.274108 0.597958,-0.414072 0.221668,-0.387347 -0.10578,-0.962815 -0.570283,-0.888468 -0.598487,0.01217 -0.844127,0.830793 -0.459211,1.239575 0.356341,0.402166 1.014148,0.347133 1.436714,0.08414 0.479558,-0.312208 0.539618,-0.937684 0.484849,-1.4716136 -0.01852,-0.179387 -0.106627,-0.706437 -0.117475,-0.896143 0.184415,-0.06588 0.0553,-0.01561 0.315648,-0.118798 0.703792,-0.278607 1.15279,-1.126861 0.950913,-1.884363 -0.08414,-0.388673 -0.276225,-0.7709957 -0.609071,-1.0032997 z m 0.148431,1.5232057 c 0.05662,0.526786 -0.278606,1.143265 -0.814652,1.312334 -0.03598,-0.210344 -0.04551,-0.267494 -0.06948,-0.390261 -0.127582,-0.650875 -0.19685,-1.319477 -0.295275,-1.979348 0.429842,-0.04445 0.914824,0.143669 1.064313,0.57785 0.06456,0.152665 0.09075,0.316707 0.115094,0.479425 z m -1.362234,1.374775 c -0.673126,0.03731 -1.322784,-0.42201 -1.490742,-1.079764 -0.198173,-0.569648 -0.139779,-1.225021 0.217144,-1.7208497 0.295037,-0.450321 0.689636,-0.821531 1.0659,-1.202002 0.04842,0.298185 0.09684,0.596371 0.145257,0.894821 -0.791263,0.206904 -1.324134,1.2501557 -0.850636,1.9714097 0.140864,0.202142 0.522949,0.588169 0.731705,0.432329 -0.29157,-0.18071 -0.530039,-0.49186 -0.478763,-0.85381 -0.02172,-0.339196 0.362453,-0.770202 0.70149,-0.846138 0.115993,0.75909 0.249052,1.606815 0.365045,2.366169 -0.13372,0.02646 -0.270166,0.03783 -0.4064,0.03783 z"
       id="path1"
       style="stroke-width:0.264583" /><g
       id="g6"
       transform="translate(-1.0088765,-0.89599777)"><ellipse
         style="fill:#000000;fill-opacity:1;stroke:none;stroke-width:1;stroke-linejoin:round"
         id="path3"
         cx="7.6702204"
         cy="7.3258152"
         rx="1.3202204"
         ry="0.97581506" /><rect
         style="fill:#000000;fill-opacity:1;stroke:none;stroke-width:1;stroke-linejoin:round"
         id="rect3"
         width="0.38030756"
         height="4.7236414"
         x="8.6101332"
         y="2.6021736" /><rect
         style="fill:#000000;fill-opacity:1;stroke:none;stroke-width:1;stroke-linejoin:round"
         id="rect4"
         width="1.9482507"
         height="0.36529708"
         x="8.6101332"
         y="2.6021736" /></g><g
       id="g5"
       transform="matrix(0.70329715,0.50898571,-0.50898571,0.70329715,6.3853953,-6.099275)"><g
         id="g7"
         style="fill:#2f64fc;fill-opacity:1"
         transform="matrix(1.1963272,0,0,1.1963272,-1.6933014,-2.0518767)"><path
           style="baseline-shift:baseline;display:inline;overflow:visible;opacity:1;vector-effect:none;fill:#2f64fc;fill-opacity:1;stroke-linejoin:round;enable-background:accumulate;stop-color:#000000;stop-opacity:1"
           d="M 10.208984,7.75 C 9.701609,7.7288625 9.2657724,7.8697074 8.9511719,8.1113281 8.6365713,8.3529489 8.4491416,8.6716597 8.3378906,8.9667969 8.1153888,9.5570713 8.1601563,10.119141 8.1601563,10.119141 l 0.9980468,-0.06055 c 0,0 -0.013561,-0.391419 0.1171875,-0.7382815 0.065374,-0.1734312 0.1569591,-0.3190571 0.2832032,-0.4160156 0.126244,-0.096958 0.292462,-0.1693714 0.6074222,-0.15625 0.577871,0.024074 0.810458,0.166204 0.941406,0.3417969 0.130948,0.1755928 0.200222,0.4924847 0.164062,0.9746092 -0.02519,0.335887 -0.313778,0.707467 -0.699218,1.109375 -0.385441,0.401909 -0.9075222,0.796759 -0.9375004,1.50586 l -0.027344,0.638671 0.9980474,0.04297 0.02734,-0.640625 c 0.0036,-0.08468 0.258203,-0.434305 0.662109,-0.855469 0.403906,-0.421163 0.916602,-0.951224 0.974609,-1.724609 C 12.314549,9.5403884 12.258217,8.9589133 11.910156,8.4921875 11.562096,8.0254617 10.962164,7.7813777 10.208984,7.75 Z"
           id="path4" /><circle
           style="fill:#2f64fc;fill-opacity:1;stroke:none;stroke-width:1.28928;stroke-linejoin:round;stroke-opacity:1"
           id="path5"
           cx="10.045668"
           cy="14.35482"
           r="0.76750147" /></g></g></g></svg>
